Coordinates
version=1
nRows=8
nColumns=63
inDegrees=yes

Units are S.I. units (second, meters, Newtons, ...)
If the header above contains a line with 'inDegrees', this indicates whether rotational values are in degrees (yes) or radians (no).

endheader
time	pelvis_tilt	pelvis_list	pelvis_rotation	pelvis_tx	pelvis_ty	pelvis_tz	hip_flexion_r	hip_adduction_r	hip_rotation_r	knee_angle_r	knee_angle_r_beta	ankle_angle_r	subtalar_angle_r	mtp_angle_r	hip_flexion_l	hip_adduction_l	hip_rotation_l	knee_angle_l	knee_angle_l_beta	ankle_angle_l	subtalar_angle_l	mtp_angle_l	L5_S1_Flex_Ext	L5_S1_Lat_Bending	L5_S1_axial_rotation	L4_L5_Flex_Ext	L4_L5_Lat_Bending	L4_L5_axial_rotation	L3_L4_Flex_Ext	L3_L4_Lat_Bending	L3_L4_axial_rotation	L2_L3_Flex_Ext	L2_L3_Lat_Bending	L2_L3_axial_rotation	L1_L2_Flex_Ext	L1_L2_Lat_Bending	L1_L2_axial_rotation	L1_T12_Flex_Ext	L1_T12_Lat_Bending	L1_T12_axial_rotation	Abs_r3	Abs_r2	Abs_r1	Abs_t1	Abs_t2	neck_flexion	neck_bending	neck_rotation	arm_flex_r	arm_add_r	arm_rot_r	elbow_flex_r	pro_sup_r	wrist_flex_r	wrist_dev_r	arm_flex_l	arm_add_l	arm_rot_l	elbow_flex_l	pro_sup_l	wrist_flex_l	wrist_dev_l
      2.33898305	     -4.11714226	    -11.54766757	     95.66309384	      0.31657615	      0.69415518	      0.90313266	     16.80018157	     -0.83306895	    -13.95588736	      9.14903370	      0.15968076	     30.28986022	     17.05816990	      0.00000000	     14.97356701	     -1.97979590	    -10.73757031	      7.91380413	      0.13812194	     26.47297142	      8.83544319	      0.00000000	     -0.20908084	      0.82769521	     -2.23834833	     -0.38828403	      1.10083463	     -2.37824510	     -0.34349891	      2.01245814	     -2.37824510	     -0.23895849	      2.01245814	     -1.95855479	     -0.19415247	      1.68783608	     -1.81865802	     -0.11946879	      1.28209988	     -1.67876125	     -1.49344353	      9.36305378	    -12.44902191	      0.00000000	      0.00000000	      4.10133600	      2.01915909	     10.26770044	      1.91191716	    -14.88878158	     24.47411088	     85.40745277	     87.57818329	     11.63067471	     20.94805315	    -14.59122093	    -14.80575743	     18.16860486	    103.84280956	     83.04291450	      5.32295025	     12.39687257
      2.35593220	     -4.17950114	    -10.53726386	     96.15339644	      0.31623830	      0.69712497	      0.90105384	     15.42759434	     -0.87333672	    -14.29721019	      8.81716723	      0.15388860	     30.17516500	     17.01941811	      0.00000000	     13.53307893	     -1.82589829	    -10.00461506	      7.27535785	      0.12697895	     25.98663836	      8.45092269	      0.00000000	     -0.22708043	      0.76559538	     -2.20739806	     -0.42171107	      1.01824186	     -2.34536044	     -0.37307044	      1.86146861	     -2.34536044	     -0.25953023	      1.86146861	     -1.93147331	     -0.21086689	      1.56120210	     -1.79351093	     -0.12975376	      1.18590724	     -1.65554855	     -1.62201283	      8.66056806	    -12.27688581	      0.00000000	      0.00000000	      4.95930839	      2.94154448	      9.79412864	      3.32017507	    -15.67800195	     28.60131279	     83.94434412	     86.69212003	     16.74602620	     22.36428266	    -12.74803969	    -14.84468720	     19.57484478	    100.61052827	     82.81825483	      6.27692172	     10.78319323
      2.37288136	     -4.15602660	     -9.81226486	     96.75772710	      0.31550293	      0.69956368	      0.89954611	     14.50660780	     -0.92889207	    -14.94073029	      8.76674030	      0.15300848	     30.08723566	     17.12410372	      0.00000000	     12.50830495	     -1.67859811	     -8.14133707	      6.74898476	      0.11779201	     25.30976927	      6.82772818	      0.00000000	     -0.20397946	      0.71275118	     -2.05925969	     -0.37881026	      0.94795907	     -2.18796342	     -0.33511786	      1.73298321	     -2.18796342	     -0.23312813	      1.73298321	     -1.80185223	     -0.18941533	      1.45344220	     -1.67314850	     -0.11655386	      1.10405157	     -1.54444477	     -1.45700489	      8.06278386	    -11.45298461	      0.00000000	      0.00000000	      5.52545972	      3.90692713	      8.50805915	      3.91013767	    -15.92784138	     30.89908716	     82.83589193	     85.86202237	     24.24687509	     23.05971817	    -10.14735696	    -14.79742596	     21.92919195	     96.89294565	     82.95979753	      7.79887699	      9.42107954
      2.38983051	     -4.14398876	     -8.87793549	     97.32376347	      0.31454497	      0.70213996	      0.89829673	     13.40310206	     -0.97519299	    -15.61178690	      8.76753953	      0.15302243	     30.05862582	     17.29656258	      0.00000000	     11.16008704	     -1.45265919	     -4.65640383	      5.94594047	      0.10377624	     24.16868662	      2.92346303	      0.00000000	     -0.22181656	      0.65961981	     -1.83482523	     -0.41193552	      0.87729434	     -1.94950181	     -0.36442242	      1.60379960	     -1.94950181	     -0.25351414	      1.60379960	     -1.60547208	     -0.20597885	      1.34509671	     -1.49079550	     -0.12674598	      1.02175108	     -1.37611892	     -1.58441347	      7.46175118	    -10.20474748	      0.00000000	      0.00000000	      6.14093974	      4.58834612	      6.33660280	      3.98292869	    -16.32746308	     32.92474844	     82.20817795	     85.81401793	     28.98064560	     21.13632162	     -7.08412089	    -14.67878128	     25.01248869	     93.07032134	     82.84619461	      8.87240246	      9.12137466
      2.40677966	     -4.12319614	     -8.06286003	     97.84532413	      0.31376044	      0.70433873	      0.89719199	     12.49330225	     -1.01140459	    -16.31383916	      8.88429503	      0.15506020	     30.02930657	     17.50192710	      0.00000000	     10.12775090	     -1.45010063	     -3.93763272	      5.59401474	      0.09763398	     23.86115129	      2.85439678	      0.00000000	     -0.21402519	      0.60671187	     -1.57522582	     -0.39746619	      0.80692679	     -1.67367744	     -0.35162199	      1.47515925	     -1.67367744	     -0.24460939	      1.47515925	     -1.37832260	     -0.19874379	      1.23720685	     -1.27987098	     -0.12229400	      0.93979669	     -1.18141937	     -1.52876055	      6.86324605	     -8.76093346	      0.00000000	      0.00000000	      6.75305996	      4.95045995	      3.92336231	      3.41986467	    -16.63163494	     34.44426349	     81.74816618	     85.80923769	     31.05593692	     18.12437823	     -3.93481897	    -14.47327843	     28.51479313	     89.09550124	     82.44750313	      9.99743522	      9.41819114
      2.42372881	     -4.13233300	     -7.30667490	     98.36704515	      0.31301944	      0.70629881	      0.89600783	     11.62243232	     -1.06107002	    -16.97690928	      8.97273622	      0.15660379	     29.98273082	     17.64470840	      0.00000000	      9.15811242	     -1.42561462	     -3.11469797	      5.23983819	      0.09145243	     23.59204131	      2.69934646	      0.00000000	     -0.18670351	      0.54958545	     -1.32757426	     -0.34672708	      0.73094865	     -1.41054765	     -0.30673519	      1.33626206	     -1.41054765	     -0.21338344	      1.33626206	     -1.16162748	     -0.17337288	      1.12071464	     -1.07865409	     -0.10668238	      0.85130786	     -0.99568070	     -1.33360448	      6.21702050	     -7.38356978	      0.00000000	      0.00000000	      7.58162693	      4.87896656	      1.48297765	      2.58435669	    -16.84597695	     35.82947330	     80.96058220	     85.56611854	     30.41520381	     14.12953430	     -0.90613260	    -14.17142859	     32.18460950	     85.20706667	     81.76812679	     10.63291700	     10.59738542
      2.44067797	     -4.13488930	     -6.59615701	     98.94337721	      0.31225361	      0.70798336	      0.89474858	     10.76156635	     -1.08973778	    -17.62579001	      9.01823040	      0.15739781	     29.96046465	     17.72049965	      0.00000000	      8.26814435	     -1.42998847	     -2.42545271	      4.93269520	      0.08609177	     23.47302380	      2.86592279	      0.00000000	     -0.15178560	      0.49415752	     -1.11944123	     -0.28188103	      0.65722950	     -1.18940631	     -0.24936855	      1.20149460	     -1.18940631	     -0.17347576	      1.20149460	     -0.97951108	     -0.14094810	      1.00768602	     -0.90954600	     -0.08673029	      0.76545000	     -0.83958092	     -1.08418933	      5.59000871	     -6.22599629	      0.00000000	      0.00000000	      8.78482952	      4.55611263	     -0.62559565	      1.73311895	    -16.77015406	     36.93112594	     79.46380390	     83.87107387	     28.78921669	     10.69384869	      1.91270724	    -13.79856680	     35.75407799	     81.55035429	     81.55360041	     11.16942924	     12.13404532
      2.45762712	     -4.18726704	     -6.18817566	     99.19061171	      0.31179062	      0.70907366	      0.89331863	     10.25260798	     -1.16115260	    -17.98307048	      9.12098446	      0.15919121	     29.97310549	     17.88049347	      0.00000000	      7.64651332	     -1.36435996	     -1.71536745	      4.63368906	      0.08087313	     23.33015821	      2.50183839	      0.00000000	     -0.07362993	      0.43170255	     -0.89407053	     -0.13673814	      0.57416439	     -0.94994994	     -0.12096661	      1.04964157	     -0.94994994	     -0.08415165	      1.04964157	     -0.78231171	     -0.06837275	      0.88032783	     -0.72643230	     -0.04207214	      0.66870724	     -0.67055290	     -0.52593121	      4.88350553	     -4.97255206	      0.00000000	      0.00000000	     10.09040188	      3.72312500	     -2.55469246	      1.10054391	    -16.80600661	     38.61798805	     77.60150372	     81.27816287	     24.16073659	      7.02169041	      4.43580386	    -13.44977376	     39.37349508	     78.08656310	     80.25853771	     11.13196836	     13.30086118
